<?xml version="1.0" standalone="no"?>
<!DOCTYPE svg PUBLIC "-//W3C//DTD SVG 20010904//EN"
 "http://www.w3.org/TR/2001/REC-SVG-20010904/DTD/svg10.dtd">
<svg version="1.0" xmlns="http://www.w3.org/2000/svg"
 width="18.000000pt" height="17.000000pt" viewBox="0 0 18.000000 17.000000"
 preserveAspectRatio="xMidYMid meet">

<g transform="translate(0.000000,17.000000) scale(0.100000,-0.100000)"
fill="#000000" stroke="none">
<path d="M8 135 c-15 -34 5 -79 48 -105 37 -23 53 -19 91 22 56 61 21 135 -47
98 -13 -7 -21 -7 -25 0 -12 20 -55 11 -67 -15z m71 -7 l8 -22 12 22 c14 26 47
29 60 4 13 -24 -9 -73 -43 -95 -26 -17 -28 -17 -55 2 -38 27 -58 75 -41 96 18
22 49 18 59 -7z"/>
</g>
</svg>
